<?xml version="1.0" encoding="utf-8" standalone="no"?>
<!DOCTYPE svg PUBLIC "-//W3C//DTD SVG 1.1//EN"
  "http://www.w3.org/Graphics/SVG/1.1/DTD/svg11.dtd">
<svg xmlns:xlink="http://www.w3.org/1999/xlink" width="576pt" height="576pt" viewBox="0 0 576 576" xmlns="http://www.w3.org/2000/svg" version="1.1">
 <metadata>
  <rdf:RDF xmlns:dc="http://purl.org/dc/elements/1.1/" xmlns:cc="http://creativecommons.org/ns#" xmlns:rdf="http://www.w3.org/1999/02/22-rdf-syntax-ns#">
   <cc:Work>
    <dc:type rdf:resource="http://purl.org/dc/dcmitype/StillImage"/>
    <dc:date>2024-08-11T21:34:33.483819</dc:date>
    <dc:format>image/svg+xml</dc:format>
    <dc:creator>
     <cc:Agent>
      <dc:title>Matplotlib v3.7.1, https://matplotlib.org/</dc:title>
     </cc:Agent>
    </dc:creator>
   </cc:Work>
  </rdf:RDF>
 </metadata>
 <defs>
  <style type="text/css">*{stroke-linejoin: round; stroke-linecap: butt}</style>
 </defs>
 <g id="figure_1">
  <g id="patch_1">
   <path d="M 0 576 
L 576 576 
L 576 0 
L 0 0 
z
" style="fill: #ffffff"/>
  </g>
  <g id="axes_1">
   <g id="patch_2">
    <path d="M 36.8875 525.143295 
L 560.559765 525.143295 
L 560.559765 50.856705 
L 36.8875 50.856705 
z
" style="fill: #ffffff"/>
   </g>
   <g id="matplotlib.axis_1">
    <g id="xtick_1">
     <g id="line2d_1">
      <defs>
       <path id="m58db57d4c2" d="M 0 0 
L 0 3.5 
" style="stroke: #000000; stroke-width: 0.8"/>
      </defs>
      <g>
       <use xlink:href="#m58db57d4c2" x="54.978453" y="525.143295" style="stroke: #000000; stroke-width: 0.8"/>
      </g>
     </g>
     <g id="text_1">
      <!-- 0 -->
      <g transform="translate(51.797203 539.741732) scale(0.1 -0.1)">
       <defs>
        <path id="DejaVuSans-30" d="M 2034 4250 
Q 1547 4250 1301 3770 
Q 1056 3291 1056 2328 
Q 1056 1369 1301 889 
Q 1547 409 2034 409 
Q 2525 409 2770 889 
Q 3016 1369 3016 2328 
Q 3016 3291 2770 3770 
Q 2525 4250 2034 4250 
z
M 2034 4750 
Q 2819 4750 3233 4129 
Q 3647 3509 3647 2328 
Q 3647 1150 3233 529 
Q 2819 -91 2034 -91 
Q 1250 -91 836 529 
Q 422 1150 422 2328 
Q 422 3509 836 4129 
Q 1250 4750 2034 4750 
z
" transform="scale(0.015625)"/>
       </defs>
       <use xlink:href="#DejaVuSans-30"/>
      </g>
     </g>
    </g>
    <g id="xtick_2">
     <g id="line2d_2">
      <g>
       <use xlink:href="#m58db57d4c2" x="126.382595" y="525.143295" style="stroke: #000000; stroke-width: 0.8"/>
      </g>
     </g>
     <g id="text_2">
      <!-- 25 -->
      <g transform="translate(120.020095 539.741732) scale(0.1 -0.1)">
       <defs>
        <path id="DejaVuSans-32" d="M 1228 531 
L 3431 531 
L 3431 0 
L 469 0 
L 469 531 
Q 828 903 1448 1529 
Q 2069 2156 2228 2338 
Q 2531 2678 2651 2914 
Q 2772 3150 2772 3378 
Q 2772 3750 2511 3984 
Q 2250 4219 1831 4219 
Q 1534 4219 1204 4116 
Q 875 4013 500 3803 
L 500 4441 
Q 881 4594 1212 4672 
Q 1544 4750 1819 4750 
Q 2544 4750 2975 4387 
Q 3406 4025 3406 3419 
Q 3406 3131 3298 2873 
Q 3191 2616 2906 2266 
Q 2828 2175 2409 1742 
Q 1991 1309 1228 531 
z
" transform="scale(0.015625)"/>
        <path id="DejaVuSans-35" d="M 691 4666 
L 3169 4666 
L 3169 4134 
L 1269 4134 
L 1269 2991 
Q 1406 3038 1543 3061 
Q 1681 3084 1819 3084 
Q 2600 3084 3056 2656 
Q 3513 2228 3513 1497 
Q 3513 744 3044 326 
Q 2575 -91 1722 -91 
Q 1428 -91 1123 -41 
Q 819 9 494 109 
L 494 744 
Q 775 591 1075 516 
Q 1375 441 1709 441 
Q 2250 441 2565 725 
Q 2881 1009 2881 1497 
Q 2881 1984 2565 2268 
Q 2250 2553 1709 2553 
Q 1456 2553 1204 2497 
Q 953 2441 691 2322 
L 691 4666 
z
" transform="scale(0.015625)"/>
       </defs>
       <use xlink:href="#DejaVuSans-32"/>
       <use xlink:href="#DejaVuSans-35" x="63.623047"/>
      </g>
     </g>
    </g>
    <g id="xtick_3">
     <g id="line2d_3">
      <g>
       <use xlink:href="#m58db57d4c2" x="197.786737" y="525.143295" style="stroke: #000000; stroke-width: 0.8"/>
      </g>
     </g>
     <g id="text_3">
      <!-- 50 -->
      <g transform="translate(191.424237 539.741732) scale(0.1 -0.1)">
       <use xlink:href="#DejaVuSans-35"/>
       <use xlink:href="#DejaVuSans-30" x="63.623047"/>
      </g>
     </g>
    </g>
    <g id="xtick_4">
     <g id="line2d_4">
      <g>
       <use xlink:href="#m58db57d4c2" x="269.190879" y="525.143295" style="stroke: #000000; stroke-width: 0.8"/>
      </g>
     </g>
     <g id="text_4">
      <!-- 75 -->
      <g transform="translate(262.828379 539.741732) scale(0.1 -0.1)">
       <defs>
        <path id="DejaVuSans-37" d="M 525 4666 
L 3525 4666 
L 3525 4397 
L 1831 0 
L 1172 0 
L 2766 4134 
L 525 4134 
L 525 4666 
z
" transform="scale(0.015625)"/>
       </defs>
       <use xlink:href="#DejaVuSans-37"/>
       <use xlink:href="#DejaVuSans-35" x="63.623047"/>
      </g>
     </g>
    </g>
    <g id="xtick_5">
     <g id="line2d_5">
      <g>
       <use xlink:href="#m58db57d4c2" x="340.595021" y="525.143295" style="stroke: #000000; stroke-width: 0.8"/>
      </g>
     </g>
     <g id="text_5">
      <!-- 100 -->
      <g transform="translate(331.051271 539.741732) scale(0.1 -0.1)">
       <defs>
        <path id="DejaVuSans-31" d="M 794 531 
L 1825 531 
L 1825 4091 
L 703 3866 
L 703 4441 
L 1819 4666 
L 2450 4666 
L 2450 531 
L 3481 531 
L 3481 0 
L 794 0 
L 794 531 
z
" transform="scale(0.015625)"/>
       </defs>
       <use xlink:href="#DejaVuSans-31"/>
       <use xlink:href="#DejaVuSans-30" x="63.623047"/>
       <use xlink:href="#DejaVuSans-30" x="127.246094"/>
      </g>
     </g>
    </g>
    <g id="xtick_6">
     <g id="line2d_6">
      <g>
       <use xlink:href="#m58db57d4c2" x="411.999163" y="525.143295" style="stroke: #000000; stroke-width: 0.8"/>
      </g>
     </g>
     <g id="text_6">
      <!-- 125 -->
      <g transform="translate(402.455413 539.741732) scale(0.1 -0.1)">
       <use xlink:href="#DejaVuSans-31"/>
       <use xlink:href="#DejaVuSans-32" x="63.623047"/>
       <use xlink:href="#DejaVuSans-35" x="127.246094"/>
      </g>
     </g>
    </g>
    <g id="xtick_7">
     <g id="line2d_7">
      <g>
       <use xlink:href="#m58db57d4c2" x="483.403305" y="525.143295" style="stroke: #000000; stroke-width: 0.8"/>
      </g>
     </g>
     <g id="text_7">
      <!-- 150 -->
      <g transform="translate(473.859555 539.741732) scale(0.1 -0.1)">
       <use xlink:href="#DejaVuSans-31"/>
       <use xlink:href="#DejaVuSans-35" x="63.623047"/>
       <use xlink:href="#DejaVuSans-30" x="127.246094"/>
      </g>
     </g>
    </g>
    <g id="xtick_8">
     <g id="line2d_8">
      <g>
       <use xlink:href="#m58db57d4c2" x="554.807447" y="525.143295" style="stroke: #000000; stroke-width: 0.8"/>
      </g>
     </g>
     <g id="text_8">
      <!-- 175 -->
      <g transform="translate(545.263697 539.741732) scale(0.1 -0.1)">
       <use xlink:href="#DejaVuSans-31"/>
       <use xlink:href="#DejaVuSans-37" x="63.623047"/>
       <use xlink:href="#DejaVuSans-35" x="127.246094"/>
      </g>
     </g>
    </g>
   </g>
   <g id="matplotlib.axis_2">
    <g id="ytick_1">
     <g id="line2d_9">
      <defs>
       <path id="m65af6abc3e" d="M 0 0 
L -3.5 0 
" style="stroke: #000000; stroke-width: 0.8"/>
      </defs>
      <g>
       <use xlink:href="#m65af6abc3e" x="36.8875" y="509.297145" style="stroke: #000000; stroke-width: 0.8"/>
      </g>
     </g>
     <g id="text_9">
      <!-- 0 -->
      <g transform="translate(23.525 513.096364) scale(0.1 -0.1)">
       <use xlink:href="#DejaVuSans-30"/>
      </g>
     </g>
    </g>
    <g id="ytick_2">
     <g id="line2d_10">
      <g>
       <use xlink:href="#m65af6abc3e" x="36.8875" y="452.173831" style="stroke: #000000; stroke-width: 0.8"/>
      </g>
     </g>
     <g id="text_10">
      <!-- 20 -->
      <g transform="translate(17.1625 455.97305) scale(0.1 -0.1)">
       <use xlink:href="#DejaVuSans-32"/>
       <use xlink:href="#DejaVuSans-30" x="63.623047"/>
      </g>
     </g>
    </g>
    <g id="ytick_3">
     <g id="line2d_11">
      <g>
       <use xlink:href="#m65af6abc3e" x="36.8875" y="395.050518" style="stroke: #000000; stroke-width: 0.8"/>
      </g>
     </g>
     <g id="text_11">
      <!-- 40 -->
      <g transform="translate(17.1625 398.849736) scale(0.1 -0.1)">
       <defs>
        <path id="DejaVuSans-34" d="M 2419 4116 
L 825 1625 
L 2419 1625 
L 2419 4116 
z
M 2253 4666 
L 3047 4666 
L 3047 1625 
L 3713 1625 
L 3713 1100 
L 3047 1100 
L 3047 0 
L 2419 0 
L 2419 1100 
L 313 1100 
L 313 1709 
L 2253 4666 
z
" transform="scale(0.015625)"/>
       </defs>
       <use xlink:href="#DejaVuSans-34"/>
       <use xlink:href="#DejaVuSans-30" x="63.623047"/>
      </g>
     </g>
    </g>
    <g id="ytick_4">
     <g id="line2d_12">
      <g>
       <use xlink:href="#m65af6abc3e" x="36.8875" y="337.927204" style="stroke: #000000; stroke-width: 0.8"/>
      </g>
     </g>
     <g id="text_12">
      <!-- 60 -->
      <g transform="translate(17.1625 341.726423) scale(0.1 -0.1)">
       <defs>
        <path id="DejaVuSans-36" d="M 2113 2584 
Q 1688 2584 1439 2293 
Q 1191 2003 1191 1497 
Q 1191 994 1439 701 
Q 1688 409 2113 409 
Q 2538 409 2786 701 
Q 3034 994 3034 1497 
Q 3034 2003 2786 2293 
Q 2538 2584 2113 2584 
z
M 3366 4563 
L 3366 3988 
Q 3128 4100 2886 4159 
Q 2644 4219 2406 4219 
Q 1781 4219 1451 3797 
Q 1122 3375 1075 2522 
Q 1259 2794 1537 2939 
Q 1816 3084 2150 3084 
Q 2853 3084 3261 2657 
Q 3669 2231 3669 1497 
Q 3669 778 3244 343 
Q 2819 -91 2113 -91 
Q 1303 -91 875 529 
Q 447 1150 447 2328 
Q 447 3434 972 4092 
Q 1497 4750 2381 4750 
Q 2619 4750 2861 4703 
Q 3103 4656 3366 4563 
z
" transform="scale(0.015625)"/>
       </defs>
       <use xlink:href="#DejaVuSans-36"/>
       <use xlink:href="#DejaVuSans-30" x="63.623047"/>
      </g>
     </g>
    </g>
    <g id="ytick_5">
     <g id="line2d_13">
      <g>
       <use xlink:href="#m65af6abc3e" x="36.8875" y="280.803891" style="stroke: #000000; stroke-width: 0.8"/>
      </g>
     </g>
     <g id="text_13">
      <!-- 80 -->
      <g transform="translate(17.1625 284.603109) scale(0.1 -0.1)">
       <defs>
        <path id="DejaVuSans-38" d="M 2034 2216 
Q 1584 2216 1326 1975 
Q 1069 1734 1069 1313 
Q 1069 891 1326 650 
Q 1584 409 2034 409 
Q 2484 409 2743 651 
Q 3003 894 3003 1313 
Q 3003 1734 2745 1975 
Q 2488 2216 2034 2216 
z
M 1403 2484 
Q 997 2584 770 2862 
Q 544 3141 544 3541 
Q 544 4100 942 4425 
Q 1341 4750 2034 4750 
Q 2731 4750 3128 4425 
Q 3525 4100 3525 3541 
Q 3525 3141 3298 2862 
Q 3072 2584 2669 2484 
Q 3125 2378 3379 2068 
Q 3634 1759 3634 1313 
Q 3634 634 3220 271 
Q 2806 -91 2034 -91 
Q 1263 -91 848 271 
Q 434 634 434 1313 
Q 434 1759 690 2068 
Q 947 2378 1403 2484 
z
M 1172 3481 
Q 1172 3119 1398 2916 
Q 1625 2713 2034 2713 
Q 2441 2713 2670 2916 
Q 2900 3119 2900 3481 
Q 2900 3844 2670 4047 
Q 2441 4250 2034 4250 
Q 1625 4250 1398 4047 
Q 1172 3844 1172 3481 
z
" transform="scale(0.015625)"/>
       </defs>
       <use xlink:href="#DejaVuSans-38"/>
       <use xlink:href="#DejaVuSans-30" x="63.623047"/>
      </g>
     </g>
    </g>
    <g id="ytick_6">
     <g id="line2d_14">
      <g>
       <use xlink:href="#m65af6abc3e" x="36.8875" y="223.680577" style="stroke: #000000; stroke-width: 0.8"/>
      </g>
     </g>
     <g id="text_14">
      <!-- 100 -->
      <g transform="translate(10.8 227.479796) scale(0.1 -0.1)">
       <use xlink:href="#DejaVuSans-31"/>
       <use xlink:href="#DejaVuSans-30" x="63.623047"/>
       <use xlink:href="#DejaVuSans-30" x="127.246094"/>
      </g>
     </g>
    </g>
    <g id="ytick_7">
     <g id="line2d_15">
      <g>
       <use xlink:href="#m65af6abc3e" x="36.8875" y="166.557263" style="stroke: #000000; stroke-width: 0.8"/>
      </g>
     </g>
     <g id="text_15">
      <!-- 120 -->
      <g transform="translate(10.8 170.356482) scale(0.1 -0.1)">
       <use xlink:href="#DejaVuSans-31"/>
       <use xlink:href="#DejaVuSans-32" x="63.623047"/>
       <use xlink:href="#DejaVuSans-30" x="127.246094"/>
      </g>
     </g>
    </g>
    <g id="ytick_8">
     <g id="line2d_16">
      <g>
       <use xlink:href="#m65af6abc3e" x="36.8875" y="109.43395" style="stroke: #000000; stroke-width: 0.8"/>
      </g>
     </g>
     <g id="text_16">
      <!-- 140 -->
      <g transform="translate(10.8 113.233169) scale(0.1 -0.1)">
       <use xlink:href="#DejaVuSans-31"/>
       <use xlink:href="#DejaVuSans-34" x="63.623047"/>
       <use xlink:href="#DejaVuSans-30" x="127.246094"/>
      </g>
     </g>
    </g>
    <g id="ytick_9">
     <g id="line2d_17">
      <g>
       <use xlink:href="#m65af6abc3e" x="36.8875" y="52.310636" style="stroke: #000000; stroke-width: 0.8"/>
      </g>
     </g>
     <g id="text_17">
      <!-- 160 -->
      <g transform="translate(10.8 56.109855) scale(0.1 -0.1)">
       <use xlink:href="#DejaVuSans-31"/>
       <use xlink:href="#DejaVuSans-36" x="63.623047"/>
       <use xlink:href="#DejaVuSans-30" x="127.246094"/>
      </g>
     </g>
    </g>
   </g>
   <g id="line2d_18">
    <path d="M 407.886285 496.387276 
L 405.95266 496.607201 
L 404.173269 495.916009 
L 402.408159 495.341919 
L 402.408159 495.341919 
L 374.92042 486.399265 
L 347.315579 477.830768 
L 319.79071 469.005216 
L 319.79071 469.005216 
L 311.019426 466.191892 
L 302.259565 463.327158 
L 293.425445 460.69663 
L 293.425445 460.69663 
L 291.043403 459.988301 
L 288.672785 459.060047 
L 286.556367 457.657669 
" clip-path="url(#p52f0a2f63d)" style="fill: none; stroke: #1f77b4; stroke-width: 2; stroke-linecap: square"/>
   </g>
   <g id="line2d_19">
    <path d="M 213.895512 223.56633 
L 207.857577 219.570555 
L 200.765718 218.539479 
L 193.996605 216.782937 
L 193.996605 216.782937 
L 171.250102 210.884955 
L 148.555009 204.792753 
L 125.811362 198.883347 
L 125.811362 198.883347 
L 115.754803 196.269955 
L 105.73823 193.499474 
L 95.650253 191.003186 
" clip-path="url(#p52f0a2f63d)" style="fill: none; stroke: #ff7f0e; stroke-width: 2; stroke-linecap: square"/>
   </g>
   <g id="line2d_20">
    <path d="M 174.137685 473.766444 
L 173.492192 470.790319 
L 174.914563 468.262612 
L 176.248392 465.914844 
L 176.248392 465.914844 
L 181.001052 457.554847 
L 185.202471 448.903522 
L 189.955131 440.549237 
L 189.955131 440.549237 
L 191.820207 437.267503 
L 192.899838 433.765843 
L 194.153695 430.187068 
L 194.153695 430.187068 
L 195.07338 429.841472 
L 196.07875 429.33593 
L 196.864196 429.167417 
L 196.864196 429.167417 
L 205.838268 407.880414 
L 218.979487 389.072563 
L 227.485148 367.968355 
L 227.485148 367.968355 
L 228.150635 366.78019 
L 229.604423 366.828745 
L 230.526964 366.214669 
L 230.526964 366.214669 
L 238.866968 345.913043 
L 251.634029 327.93348 
L 259.696984 307.643279 
L 259.696984 307.643279 
L 260.368183 306.457971 
L 261.821972 306.509382 
L 262.567431 306.009553 
L 262.567431 306.009553 
L 271.798558 284.739687 
L 284.608462 265.603377 
L 293.58539 244.559148 
L 293.58539 244.559148 
L 294.36798 243.530928 
L 295.821768 243.579483 
L 297.012789 242.622668 
L 297.012789 242.622668 
L 298.892146 234.336931 
L 303.964696 227.356462 
L 307.837657 219.810473 
L 307.837657 219.810473 
L 313.395755 208.991317 
L 319.23947 198.320682 
L 324.957514 187.584355 
L 324.957514 187.584355 
L 326.111405 185.416525 
L 326.119973 182.948798 
L 327.013953 180.706708 
L 327.013953 180.706708 
L 328.113577 179.835578 
L 329.544516 179.649927 
L 330.838359 178.941598 
L 330.838359 178.941598 
L 334.077251 168.168141 
L 340.423651 158.799917 
L 345.613304 148.900447 
L 345.613304 148.900447 
L 353.919034 133.060152 
L 362.433264 117.32268 
L 370.858953 101.542364 
L 370.858953 101.542364 
L 374.083564 95.501574 
L 377.196784 89.386523 
L 380.581341 83.448555 
L 380.581341 83.448555 
L 382.620643 79.872635 
L 383.514623 76.376688 
L 383.209013 72.415187 
" clip-path="url(#p52f0a2f63d)" style="fill: none; stroke: #2ca02c; stroke-width: 2; stroke-linecap: square"/>
   </g>
   <g id="line2d_21">
    <path d="M 505.909891 252.35648 
L 506.118391 253.76457 
L 505.601425 254.947023 
L 504.893096 256.132331 
L 504.893096 256.132331 
L 499.494942 265.189233 
L 494.316714 274.374662 
L 489.089931 283.531529 
L 489.089931 283.531529 
L 487.581875 286.176338 
L 486.299457 288.889696 
L 485.593984 291.468813 
L 485.593984 291.468813 
L 484.45723 292.848341 
L 483.003442 292.799786 
L 482.04377 293.439568 
L 482.04377 293.439568 
L 468.699764 288.281332 
L 454.738826 285.667941 
L 441.117772 281.889234 
L 441.117772 281.889234 
L 425.177512 277.467889 
L 409.103011 273.540661 
L 393.142757 269.179296 
L 393.142757 269.179296 
L 390.726441 268.519522 
L 388.595742 267.285658 
L 386.296528 266.405959 
" clip-path="url(#p52f0a2f63d)" style="fill: none; stroke: #d62728; stroke-width: 2; stroke-linecap: square"/>
   </g>
   <g id="line2d_22">
    <path d="M 444.902192 357.920364 
L 437.390476 353.43904 
L 428.779136 352.356553 
L 420.56766 350.03449 
L 420.56766 350.03449 
L 400.860117 344.459255 
L 381.084026 339.12965 
L 361.287941 333.874305 
L 361.287941 333.874305 
L 358.394646 333.105996 
L 355.595603 331.835003 
L 353.047903 330.158433 
" clip-path="url(#p52f0a2f63d)" style="fill: none; stroke: #9467bd; stroke-width: 2; stroke-linecap: square"/>
   </g>
   <g id="line2d_23">
    <path d="M 411.999163 413.786965 
L 405.724167 409.788333 
L 398.383821 409.091428 
L 391.420489 407.329174 
L 391.420489 407.329174 
L 371.113151 402.190932 
L 350.828663 396.949868 
L 330.43564 392.15151 
L 330.43564 392.15151 
L 327.699433 391.508872 
L 325.380227 389.720913 
L 322.883938 388.424213 
" clip-path="url(#p52f0a2f63d)" style="fill: none; stroke: #8c564b; stroke-width: 2; stroke-linecap: square"/>
   </g>
   <g id="line2d_24">
    <path d="M 319.116655 390.137913 
L 311.624933 386.50487 
L 303.396319 385.385253 
L 295.456179 383.323101 
L 295.456179 383.323101 
L 276.871109 378.496181 
L 258.197498 374.017714 
L 239.586722 369.279335 
L 239.586722 369.279335 
L 236.536337 368.502458 
L 233.788706 367.191478 
L 231.02965 365.803381 
" clip-path="url(#p52f0a2f63d)" style="fill: none; stroke: #e377c2; stroke-width: 2; stroke-linecap: square"/>
   </g>
   <g id="line2d_25">
    <path d="M 417.825741 200.260018 
L 411.736396 196.929729 
L 404.855893 196.267099 
L 398.266719 194.881859 
L 398.266719 194.881859 
L 378.947614 190.814679 
L 359.737044 186.259094 
L 340.37224 182.406127 
L 340.37224 182.406127 
L 337.08765 181.752065 
L 333.937299 180.558188 
L 331.112551 178.667406 
" clip-path="url(#p52f0a2f63d)" style="fill: none; stroke: #7f7f7f; stroke-width: 2; stroke-linecap: square"/>
   </g>
   <g id="line2d_26">
    <path d="M 383.209013 267.779775 
L 380.992628 275.377176 
L 376.882606 282.092021 
L 373.249563 289.018223 
L 373.249563 289.018223 
L 367.077389 300.785626 
L 361.12514 312.664419 
L 354.827295 324.366129 
L 354.827295 324.366129 
L 353.316383 327.176597 
L 353.781938 331.183797 
L 349.794731 331.983523 
L 349.794731 331.983523 
L 347.115647 341.194658 
L 342.011679 348.980565 
L 337.864527 357.180617 
L 337.864527 357.180617 
L 333.785922 365.246429 
L 329.6759 373.315097 
L 325.291685 381.226676 
L 325.291685 381.226676 
L 324.103521 383.371656 
L 323.792198 385.830815 
L 322.903931 388.08433 
L 322.903931 388.08433 
L 322.238444 389.586673 
L 320.433348 389.166816 
L 319.348005 390.246447 
L 319.348005 390.246447 
L 316.671777 400.297294 
L 310.630987 408.914346 
L 306.041129 418.214021 
L 306.041129 418.214021 
L 300.865757 428.704718 
L 295.227686 438.966921 
L 289.918074 449.394782 
L 289.918074 449.394782 
L 288.487135 452.205249 
L 287.407504 455.112826 
L 286.256469 457.920437 
L 286.256469 457.920437 
L 284.842667 458.885821 
L 283.394591 458.917238 
L 282.117885 457.97756 
L 282.117885 457.97756 
L 279.430233 455.995381 
L 276.291307 455.201367 
L 273.195223 454.213134 
L 273.195223 454.213134 
L 250.9257 447.106993 
L 228.650464 440.009422 
L 206.352378 432.988966 
L 206.352378 432.988966 
L 203.196315 431.995021 
L 200.334437 430.409849 
L 197.443997 428.864663 
" clip-path="url(#p52f0a2f63d)" style="fill: none; stroke: #bcbd22; stroke-width: 2; stroke-linecap: square"/>
   </g>
   <g id="line2d_27">
    <path d="M 349.277765 331.872133 
L 339.721034 326.728179 
L 328.996132 325.294383 
L 318.762491 322.30969 
L 318.762491 322.30969 
L 302.610874 317.599873 
L 286.282175 313.526981 
L 270.093428 308.945691 
L 270.093428 308.945691 
L 267.540015 308.223081 
L 265.386467 306.917813 
L 263.250055 305.481162 
" clip-path="url(#p52f0a2f63d)" style="fill: none; stroke: #17becf; stroke-width: 2; stroke-linecap: square"/>
   </g>
   <g id="line2d_28">
    <path d="M 448.67233 144.050678 
L 441.000669 158.665678 
L 433.6032 173.423486 
L 425.720183 187.927095 
L 425.720183 187.927095 
L 423.94936 191.183124 
L 422.367044 194.536262 
L 421.70727 198.246422 
L 421.70727 198.246422 
L 420.94753 199.708778 
L 419.142433 199.291778 
L 418.091364 200.334279 
L 418.091364 200.334279 
L 415.269473 210.365133 
L 409.477169 219.102143 
L 404.767352 228.344696 
L 404.767352 228.344696 
L 399.780486 238.132775 
L 394.902155 247.980835 
L 389.441167 257.531853 
L 389.441167 257.531853 
L 387.953104 260.13382 
L 387.224782 263.17278 
L 386.296528 266.131767 
L 386.296528 266.131767 
L 384.971267 267.114288 
L 383.631726 267.876885 
L 381.832341 267.10572 
L 381.832341 267.10572 
L 371.487309 262.65867 
L 360.382537 260.836436 
L 349.60908 257.874593 
L 349.60908 257.874593 
L 334.808429 253.804556 
L 319.950656 249.937308 
L 305.072889 246.141464 
L 305.072889 246.141464 
L 302.310976 245.435991 
L 299.743283 244.042182 
L 297.178447 242.756908 
" clip-path="url(#p52f0a2f63d)" style="fill: none; stroke: #1f77b4; stroke-width: 2; stroke-linecap: square"/>
   </g>
   <g id="line2d_29">
    <path d="M 259.479916 307.194861 
L 251.122775 303.044853 
L 241.948771 301.499667 
L 233.083233 298.991954 
L 233.083233 298.991954 
L 218.493938 294.86765 
L 203.821815 291.048957 
L 189.215384 286.981777 
L 189.215384 286.981777 
L 186.67054 286.273448 
L 184.417026 284.922481 
L 181.986429 283.834282 
L 181.986429 283.834282 
L 180.42125 284.165598 
L 179.087421 285.125269 
L 177.619351 285.587968 
L 177.619351 285.587968 
L 176.445467 291.908663 
L 172.738164 297.049761 
L 169.596382 302.345092 
L 169.596382 302.345092 
L 162.698742 313.975399 
L 156.198109 325.834199 
L 149.15766 337.37882 
L 149.15766 337.37882 
L 147.98092 339.309588 
L 147.458242 341.603089 
L 146.961269 343.9937 
L 146.961269 343.9937 
L 145.933049 345.330386 
L 144.105103 345.496043 
L 142.614185 346.284345 
L 142.614185 346.284345 
L 130.80394 340.849062 
L 117.936913 339.126794 
L 105.558291 335.756518 
L 105.558291 335.756518 
L 91.128942 331.826434 
L 76.548217 328.419029 
L 62.058888 324.688876 
L 62.058888 324.688876 
L 61.630463 324.577486 
L 61.147771 324.674595 
L 60.690785 324.674595 
" clip-path="url(#p52f0a2f63d)" style="fill: none; stroke: #ff7f0e; stroke-width: 2; stroke-linecap: square"/>
   </g>
   <g id="line2d_30">
    <path d="M 193.673859 429.895739 
L 183.314546 424.70323 
L 172.015554 422.209797 
L 161.096433 418.633878 
L 161.096433 418.633878 
L 147.672454 414.238239 
L 134.242763 409.836887 
L 120.687401 405.841112 
L 120.687401 405.841112 
L 118.028311 405.055666 
L 115.554871 403.561891 
L 113.12713 402.133809 
" clip-path="url(#p52f0a2f63d)" style="fill: none; stroke: #2ca02c; stroke-width: 2; stroke-linecap: square"/>
   </g>
   <g id="line2d_31">
    <path d="M 227.262367 367.517081 
L 218.548206 362.952928 
L 208.820105 361.776188 
L 199.4833 359.354159 
L 199.4833 359.354159 
L 184.679793 355.512616 
L 169.859149 351.728197 
L 154.955677 348.26938 
L 154.955677 348.26938 
L 152.033819 347.592469 
L 149.320462 346.112975 
L 146.718495 344.553508 
" clip-path="url(#p52f0a2f63d)" style="fill: none; stroke: #d62728; stroke-width: 2; stroke-linecap: square"/>
   </g>
   <g id="line2d_32">
    <path d="M 326.656933 180.381105 
L 320.324813 177.045104 
L 313.227242 176.493864 
L 306.423855 174.948678 
L 306.423855 174.948678 
L 288.638511 170.904348 
L 270.781763 167.168483 
L 252.95929 163.278385 
L 252.95929 163.278385 
L 251.928214 163.052748 
L 251.008529 162.344419 
L 249.883199 162.558632 
" clip-path="url(#p52f0a2f63d)" style="fill: none; stroke: #9467bd; stroke-width: 2; stroke-linecap: square"/>
   </g>
   <g id="line2d_33">
    <path d="M 293.068424 244.130723 
L 286.422127 240.494824 
L 279.004664 239.220974 
L 271.809983 237.304487 
L 271.809983 237.304487 
L 256.172476 233.143054 
L 240.500695 229.095867 
L 224.866044 224.923009 
L 224.866044 224.923009 
L 222.429735 224.271803 
L 220.230487 223.020803 
L 218.00839 221.852631 
" clip-path="url(#p52f0a2f63d)" style="fill: none; stroke: #8c564b; stroke-width: 2; stroke-linecap: square"/>
   </g>
   <g id="line2d_34">
    <path d="M 177.222344 285.259509 
L 171.067307 280.86387 
L 163.60129 280.124123 
L 156.62939 278.159081 
L 156.62939 278.159081 
L 143.188274 274.366093 
L 129.661474 270.873003 
L 116.214646 267.088583 
L 116.214646 267.088583 
L 113.961131 266.454514 
L 111.673342 266.34598 
L 109.356992 266.411672 
" clip-path="url(#p52f0a2f63d)" style="fill: none; stroke: #e377c2; stroke-width: 2; stroke-linecap: square"/>
   </g>
   <g id="line2d_35">
    <path d="M 489.458376 214.140984 
L 481.729592 213.70399 
L 474.354972 211.38764 
L 466.843256 209.825317 
L 466.843256 209.825317 
L 454.250422 207.206213 
L 441.70043 204.387178 
L 429.136157 201.630978 
L 429.136157 201.630978 
L 426.442793 201.039752 
L 423.980778 199.888717 
L 421.59588 198.546319 
" clip-path="url(#p52f0a2f63d)" style="fill: none; stroke: #7f7f7f; stroke-width: 2; stroke-linecap: square"/>
   </g>
   <g id="line2d_36">
    <path d="M 389.378331 462.456028 
L 388.941338 458.388848 
L 390.218044 454.981442 
L 392.354456 451.42266 
L 392.354456 451.42266 
L 398.25815 441.600306 
L 403.839098 431.580877 
L 409.577135 421.655701 
L 409.577135 421.655701 
L 410.919532 419.330782 
L 412.121978 416.894473 
L 412.410451 414.135417 
L 412.410451 414.135417 
L 413.78141 413.347115 
L 415.423706 413.001519 
L 416.923193 411.999005 
L 416.923193 411.999005 
L 418.3627 404.190248 
L 423.452387 398.029498 
L 427.116848 391.186126 
L 427.116848 391.186126 
L 432.020884 382.029258 
L 437.616113 373.26083 
L 442.53443 364.106819 
L 442.53443 364.106819 
L 443.545513 362.224606 
L 443.956801 360.145317 
L 444.805082 358.357357 
L 444.805082 358.357357 
L 445.998959 356.99211 
L 447.955433 357.197754 
L 449.195009 355.624007 
L 449.195009 355.624007 
L 450.297489 348.980565 
L 454.658854 343.605261 
L 457.934876 337.701567 
L 457.934876 337.701567 
L 464.758255 325.394349 
L 471.992923 313.321337 
L 478.913413 301.068386 
L 478.913413 301.068386 
L 480.238673 298.723474 
L 480.872742 296.304302 
L 481.575359 293.82515 
" clip-path="url(#p52f0a2f63d)" style="fill: none; stroke: #bcbd22; stroke-width: 2; stroke-linecap: square"/>
   </g>
   <g id="line2d_37">
    <path d="M 182.020703 283.54581 
L 182.686189 277.879177 
L 186.242116 273.537805 
L 188.918343 268.8337 
L 188.918343 268.8337 
L 195.573209 257.131989 
L 202.365171 245.507395 
L 209.13714 233.874232 
L 209.13714 233.874232 
L 211.005072 230.663902 
L 212.704491 227.422154 
L 213.721286 224.097577 
L 213.721286 224.097577 
L 214.992279 222.643789 
L 216.948753 222.846577 
L 218.228315 221.227131 
L 218.228315 221.227131 
L 219.042322 214.880731 
L 223.303721 209.759626 
L 226.308408 204.070143 
L 226.308408 204.070143 
L 227.542271 201.7338 
L 228.821834 199.354614 
L 230.384156 197.203921 
L 230.384156 197.203921 
L 231.340972 195.890085 
L 231.420944 194.533406 
L 231.375246 193.062481 
" clip-path="url(#p52f0a2f63d)" style="fill: none; stroke: #17becf; stroke-width: 2; stroke-linecap: square"/>
   </g>
   <g id="line2d_38">
    <path d="M 91.194634 438.121496 
L 95.721657 429.218828 
L 101.131235 420.818844 
L 106.003853 412.113251 
L 106.003853 412.113251 
L 107.560464 409.334202 
L 108.820033 406.526591 
L 109.813978 403.476206 
L 109.813978 403.476206 
L 110.73652 403.059206 
L 111.787589 402.650775 
L 112.715843 402.390863 
L 112.715843 402.390863 
L 116.571666 392.205777 
L 122.798107 383.603006 
L 127.902075 374.391871 
L 127.902075 374.391871 
L 131.795029 367.365704 
L 135.80223 360.39666 
L 139.909396 353.493307 
L 139.909396 353.493307 
L 141.203239 351.316909 
L 141.605958 348.946291 
L 142.265733 346.612804 
" clip-path="url(#p52f0a2f63d)" style="fill: none; stroke: #1f77b4; stroke-width: 2; stroke-linecap: square"/>
   </g>
   <g id="line2d_39">
    <path d="M 536.75648 305.481162 
L 530.138744 306.172354 
L 524.115091 303.570387 
L 517.911499 302.030914 
L 517.911499 302.030914 
L 510.11131 300.09729 
L 502.388238 297.840919 
L 494.576625 295.984411 
L 494.576625 295.984411 
L 491.203493 295.181829 
L 488.387314 293.473842 
L 485.345498 292.114307 
" clip-path="url(#p52f0a2f63d)" style="fill: none; stroke: #ff7f0e; stroke-width: 2; stroke-linecap: square"/>
   </g>
   <g id="line2d_40">
    <path d="M 264.963754 503.584813 
L 264.34111 499.060647 
L 265.894864 495.18483 
L 267.974153 491.206191 
L 267.974153 491.206191 
L 273.535107 480.566974 
L 279.735843 470.241935 
L 284.157187 459.028629 
" clip-path="url(#p52f0a2f63d)" style="fill: none; stroke: #2ca02c; stroke-width: 2; stroke-linecap: square"/>
   </g>
   <g id="line2d_41">
    <path d="M 488.087417 367.517081 
L 484.325847 367.974067 
L 480.947003 366.306066 
L 477.482474 365.380669 
L 477.482474 365.380669 
L 470.496292 363.515592 
L 463.501543 361.650516 
L 456.552491 359.642632 
L 456.552491 359.642632 
L 453.861983 358.865755 
L 451.459948 357.497651 
L 449.01507 356.203808 
" clip-path="url(#p52f0a2f63d)" style="fill: none; stroke: #d62728; stroke-width: 2; stroke-linecap: square"/>
   </g>
   <g id="line2d_42">
    <path d="M 456.898088 422.698201 
L 450.088989 422.978106 
L 443.90539 420.027687 
L 437.379051 418.830953 
L 437.379051 418.830953 
L 433.697454 418.156898 
L 430.084404 416.968733 
L 426.39995 416.154726 
L 426.39995 416.154726 
L 423.066805 415.417835 
L 419.910742 414.149698 
L 417.140261 412.073265 
" clip-path="url(#p52f0a2f63d)" style="fill: none; stroke: #9467bd; stroke-width: 2; stroke-linecap: square"/>
   </g>
   <g id="line2d_43">
    <path d="M 109.359848 403.162028 
L 98.674932 397.801005 
L 86.996071 395.307573 
L 75.777052 391.491735 
L 75.777052 391.491735 
L 74.174743 390.946208 
L 72.569578 391.303228 
L 70.972981 391.166132 
" clip-path="url(#p52f0a2f63d)" style="fill: none; stroke: #8c564b; stroke-width: 2; stroke-linecap: square"/>
   </g>
   <g id="patch_3">
    <path d="M 36.8875 525.143295 
L 36.8875 50.856705 
" style="fill: none; stroke: #000000; stroke-width: 0.8; stroke-linejoin: miter; stroke-linecap: square"/>
   </g>
   <g id="patch_4">
    <path d="M 560.559765 525.143295 
L 560.559765 50.856705 
" style="fill: none; stroke: #000000; stroke-width: 0.8; stroke-linejoin: miter; stroke-linecap: square"/>
   </g>
   <g id="patch_5">
    <path d="M 36.8875 525.143295 
L 560.559765 525.143295 
" style="fill: none; stroke: #000000; stroke-width: 0.8; stroke-linejoin: miter; stroke-linecap: square"/>
   </g>
   <g id="patch_6">
    <path d="M 36.8875 50.856705 
L 560.559765 50.856705 
" style="fill: none; stroke: #000000; stroke-width: 0.8; stroke-linejoin: miter; stroke-linecap: square"/>
   </g>
  </g>
 </g>
 <defs>
  <clipPath id="p52f0a2f63d">
   <rect x="36.8875" y="50.856705" width="523.672265" height="474.28659"/>
  </clipPath>
 </defs>
</svg>
